<svg width="19" height="20" viewBox="0 0 19 20" fill="none" xmlns="http://www.w3.org/2000/svg">
<path d="M2.16663 20C1.76663 20 1.41663 19.85 1.11663 19.55C0.816626 19.25 0.666626 18.9 0.666626 18.5V3C0.666626 2.6 0.816626 2.25 1.11663 1.95C1.41663 1.65 1.76663 1.5 2.16663 1.5H3.79163V0H5.41663V1.5H13.9166V0H15.5416V1.5H17.1666C17.5666 1.5 17.9166 1.65 18.2166 1.95C18.5166 2.25 18.6666 2.6 18.6666 3V18.5C18.6666 18.9 18.5166 19.25 18.2166 19.55C17.9166 19.85 17.5666 20 17.1666 20H2.16663ZM2.16663 18.5H17.1666V7.75H2.16663V18.5ZM2.16663 6.25H17.1666V3H2.16663V6.25ZM2.16663 6.25V3V6.25Z" fill="#95AAFF"/>
</svg>
