<svg width="21" height="20" viewBox="0 0 21 20" fill="none" xmlns="http://www.w3.org/2000/svg">
<path d="M14.0083 14.825L15.1333 13.7L11.1583 9.7V4.675H9.65831V10.3L14.0083 14.825ZM10.3333 20C8.96665 20 7.67498 19.7375 6.45831 19.2125C5.24165 18.6875 4.17915 17.9708 3.27081 17.0625C2.36248 16.1542 1.64581 15.0917 1.12081 13.875C0.595813 12.6583 0.333313 11.3667 0.333313 10C0.333313 8.63333 0.595813 7.34167 1.12081 6.125C1.64581 4.90833 2.36248 3.84583 3.27081 2.9375C4.17915 2.02917 5.24165 1.3125 6.45831 0.7875C7.67498 0.2625 8.96665 0 10.3333 0C11.7 0 12.9916 0.2625 14.2083 0.7875C15.425 1.3125 16.4875 2.02917 17.3958 2.9375C18.3041 3.84583 19.0208 4.90833 19.5458 6.125C20.0708 7.34167 20.3333 8.63333 20.3333 10C20.3333 11.3667 20.0708 12.6583 19.5458 13.875C19.0208 15.0917 18.3041 16.1542 17.3958 17.0625C16.4875 17.9708 15.425 18.6875 14.2083 19.2125C12.9916 19.7375 11.7 20 10.3333 20ZM10.3333 18.5C12.6666 18.5 14.6666 17.6667 16.3333 16C18 14.3333 18.8333 12.3333 18.8333 10C18.8333 7.66667 18 5.66667 16.3333 4C14.6666 2.33333 12.6666 1.5 10.3333 1.5C7.99998 1.5 5.99998 2.33333 4.33331 4C2.66665 5.66667 1.83331 7.66667 1.83331 10C1.83331 12.3333 2.66665 14.3333 4.33331 16C5.99998 17.6667 7.99998 18.5 10.3333 18.5Z" fill="#95AAFF"/>
</svg>
