<svg width="21" height="20" viewBox="0 0 21 20" fill="none" xmlns="http://www.w3.org/2000/svg">
<path d="M1.83331 20C1.43331 20 1.08331 19.85 0.783313 19.55C0.483313 19.25 0.333313 18.9 0.333313 18.5V6.5C0.333313 6.1 0.483313 5.75 0.783313 5.45C1.08331 5.15 1.43331 5 1.83331 5H7.75831V1.5C7.75831 1.1 7.90831 0.75 8.20831 0.45C8.50831 0.15 8.85831 0 9.25831 0H11.4333C11.8333 0 12.1833 0.15 12.4833 0.45C12.7833 0.75 12.9333 1.1 12.9333 1.5V5H18.8333C19.2333 5 19.5833 5.15 19.8833 5.45C20.1833 5.75 20.3333 6.1 20.3333 6.5V18.5C20.3333 18.9 20.1833 19.25 19.8833 19.55C19.5833 19.85 19.2333 20 18.8333 20H1.83331ZM1.83331 18.5H18.8333V6.5H12.9333C12.9333 6.96667 12.7791 7.33333 12.4708 7.6C12.1625 7.86667 11.775 8 11.3083 8H9.35831C8.90831 8 8.52915 7.86667 8.22081 7.6C7.91248 7.33333 7.75831 6.96667 7.75831 6.5H1.83331V18.5ZM4.13331 15.825H10.1083V15.475C10.1083 15.175 10.0333 14.9083 9.88331 14.675C9.73331 14.4417 9.54165 14.2833 9.30831 14.2C8.77498 14.0167 8.35831 13.8958 8.05831 13.8375C7.75831 13.7792 7.46665 13.75 7.18331 13.75C6.86665 13.75 6.52915 13.7875 6.17081 13.8625C5.81248 13.9375 5.40831 14.05 4.95831 14.2C4.70831 14.2833 4.50831 14.4417 4.35831 14.675C4.20831 14.9083 4.13331 15.175 4.13331 15.475V15.825ZM12.5333 14.15H16.7833V12.9H12.5333V14.15ZM7.18331 12.9C7.56665 12.9 7.88748 12.7667 8.14581 12.5C8.40415 12.2333 8.53331 11.9167 8.53331 11.55C8.53331 11.1667 8.40415 10.8458 8.14581 10.5875C7.88748 10.3292 7.56665 10.2 7.18331 10.2C6.81665 10.2 6.49998 10.3292 6.23331 10.5875C5.96665 10.8458 5.83331 11.1667 5.83331 11.55C5.83331 11.9167 5.96665 12.2333 6.23331 12.5C6.49998 12.7667 6.81665 12.9 7.18331 12.9ZM12.5333 11.325H16.7833V10.075H12.5333V11.325ZM9.25831 6.5H11.4333V1.5H9.25831V6.5Z" fill="#95AAFF"/>
</svg>
