<svg width="21" height="16" viewBox="0 0 21 16" fill="none" xmlns="http://www.w3.org/2000/svg">
<path d="M2.16663 16C1.76663 16 1.41663 15.85 1.11663 15.55C0.816626 15.25 0.666626 14.9 0.666626 14.5V1.5C0.666626 1.1 0.816626 0.75 1.11663 0.45C1.41663 0.15 1.76663 0 2.16663 0H19.1666C19.5666 0 19.9166 0.15 20.2166 0.45C20.5166 0.75 20.6666 1.1 20.6666 1.5V14.5C20.6666 14.9 20.5166 15.25 20.2166 15.55C19.9166 15.85 19.5666 16 19.1666 16H2.16663ZM10.6666 8.45L2.16663 2.875V14.5H19.1666V2.875L10.6666 8.45ZM10.6666 6.95L19.0666 1.5H2.29163L10.6666 6.95ZM2.16663 2.875V1.5V14.5V2.875Z" fill="#95AAFF"/>
</svg>
