<svg width="17" height="16" viewBox="0 0 17 16" fill="none" xmlns="http://www.w3.org/2000/svg">
<path d="M16.4998 8.18387C16.4998 7.64007 16.4548 7.09333 16.3588 6.55835H8.66095V9.6389H13.0692C12.8862 10.6324 12.2985 11.5113 11.4378 12.0698V14.0687H14.0678C15.6121 12.6754 16.4998 10.6177 16.4998 8.18387Z" fill="#4285F4"/>
<path d="M8.6608 16C10.8619 16 12.7182 15.2916 14.0706 14.0688L11.4407 12.07C10.709 12.5579 9.76436 12.8342 8.6638 12.8342C6.53467 12.8342 4.7294 11.4262 4.08166 9.5332H1.36777V11.5938C2.7532 14.2951 5.57506 16 8.6608 16Z" fill="#34A853"/>
<path d="M4.07905 9.53317C3.73718 8.53963 3.73718 7.46379 4.07905 6.47026V4.4097H1.36815C0.210618 6.67014 0.210618 9.33329 1.36815 11.5937L4.07905 9.53317Z" fill="#FBBC04"/>
<path d="M8.6608 3.16633C9.82433 3.1487 10.9489 3.57786 11.7915 4.36563L14.1216 2.08167C12.6462 0.723645 10.688 -0.0229766 8.6608 0.000539093C5.57506 0.000539093 2.7532 1.70542 1.36777 4.40972L4.07867 6.47028C4.7234 4.57433 6.53167 3.16633 8.6608 3.16633Z" fill="#EA4335"/>
</svg>



