<svg width="20" height="20" viewBox="0 0 20 20" fill="none" xmlns="http://www.w3.org/2000/svg">
<path d="M1.5 20C1.1 20 0.75 19.85 0.45 19.55C0.15 19.25 0 18.9 0 18.5V6.5C0 6.1 0.15 5.75 0.45 5.45C0.75 5.15 1.1 5 1.5 5H7.425V1.5C7.425 1.1 7.575 0.75 7.875 0.45C8.175 0.15 8.525 0 8.925 0H11.1C11.5 0 11.85 0.15 12.15 0.45C12.45 0.75 12.6 1.1 12.6 1.5V5H18.5C18.9 5 19.25 5.15 19.55 5.45C19.85 5.75 20 6.1 20 6.5V18.5C20 18.9 19.85 19.25 19.55 19.55C19.25 19.85 18.9 20 18.5 20H1.5ZM1.5 18.5H18.5V6.5H12.6C12.6 6.96667 12.4458 7.33333 12.1375 7.6C11.8292 7.86667 11.4417 8 10.975 8H9.025C8.575 8 8.19583 7.86667 7.8875 7.6C7.57917 7.33333 7.425 6.96667 7.425 6.5H1.5V18.5ZM3.8 15.825H9.775V15.475C9.775 15.175 9.7 14.9083 9.55 14.675C9.4 14.4417 9.20833 14.2833 8.975 14.2C8.44167 14.0167 8.025 13.8958 7.725 13.8375C7.425 13.7792 7.13333 13.75 6.85 13.75C6.53333 13.75 6.19583 13.7875 5.8375 13.8625C5.47917 13.9375 5.075 14.05 4.625 14.2C4.375 14.2833 4.175 14.4417 4.025 14.675C3.875 14.9083 3.8 15.175 3.8 15.475V15.825ZM12.2 14.15H16.45V12.9H12.2V14.15ZM6.85 12.9C7.23333 12.9 7.55417 12.7667 7.8125 12.5C8.07083 12.2333 8.2 11.9167 8.2 11.55C8.2 11.1667 8.07083 10.8458 7.8125 10.5875C7.55417 10.3292 7.23333 10.2 6.85 10.2C6.48333 10.2 6.16667 10.3292 5.9 10.5875C5.63333 10.8458 5.5 11.1667 5.5 11.55C5.5 11.9167 5.63333 12.2333 5.9 12.5C6.16667 12.7667 6.48333 12.9 6.85 12.9ZM12.2 11.325H16.45V10.075H12.2V11.325ZM8.925 6.5H11.1V1.5H8.925V6.5Z" fill="#95AAFF"/>
</svg>
