<svg width="21" height="20" viewBox="0 0 21 20" fill="none" xmlns="http://www.w3.org/2000/svg">
<path d="M1.33331 18.45V6.15C1.09998 6.11667 0.87498 5.95 0.658313 5.65C0.441646 5.35 0.333313 5.025 0.333313 4.675V1.5C0.333313 1.11667 0.483313 0.770833 0.783313 0.4625C1.08331 0.154167 1.43331 0 1.83331 0H18.8333C19.2166 0 19.5625 0.154167 19.8708 0.4625C20.1791 0.770833 20.3333 1.11667 20.3333 1.5V4.675C20.3333 5.025 20.225 5.35 20.0083 5.65C19.7916 5.95 19.5666 6.11667 19.3333 6.15V18.45C19.3333 18.8333 19.1791 19.1875 18.8708 19.5125C18.5625 19.8375 18.2166 20 17.8333 20H2.83331C2.43331 20 2.08331 19.8375 1.78331 19.5125C1.48331 19.1875 1.33331 18.8333 1.33331 18.45ZM2.83331 6.175V18.5H17.8333V6.175H2.83331ZM18.8333 4.675V1.5H1.83331V4.675H18.8333ZM7.33331 11.425H13.3333V9.925H7.33331V11.425ZM2.83331 18.5V6.175V18.5Z" fill="#95AAFF"/>
</svg>
