<svg width="17" height="20" viewBox="0 0 17 20" fill="none" xmlns="http://www.w3.org/2000/svg">
<path d="M8.33331 20C5.99998 19.4167 4.08331 18.0625 2.58331 15.9375C1.08331 13.8125 0.333313 11.4833 0.333313 8.95V3L8.33331 0L16.3333 3V8.95C16.3333 11.4833 15.5833 13.8125 14.0833 15.9375C12.5833 18.0625 10.6666 19.4167 8.33331 20ZM8.33331 18.45C10.25 17.8167 11.8125 16.6208 13.0208 14.8625C14.2291 13.1042 14.8333 11.1333 14.8333 8.95V4.05L8.33331 1.6L1.83331 4.05V8.95C1.83331 11.1333 2.43748 13.1042 3.64581 14.8625C4.85415 16.6208 6.41665 17.8167 8.33331 18.45Z" fill="#95AAFF"/>
</svg>
