<svg width="17" height="20" viewBox="0 0 17 20" fill="none" xmlns="http://www.w3.org/2000/svg">
<path d="M8.66663 9.75C9.14996 9.75 9.56246 9.57917 9.90413 9.2375C10.2458 8.89583 10.4166 8.48333 10.4166 8C10.4166 7.51667 10.2458 7.10417 9.90413 6.7625C9.56246 6.42083 9.14996 6.25 8.66663 6.25C8.18329 6.25 7.77079 6.42083 7.42913 6.7625C7.08746 7.10417 6.91663 7.51667 6.91663 8C6.91663 8.48333 7.08746 8.89583 7.42913 9.2375C7.77079 9.57917 8.18329 9.75 8.66663 9.75ZM8.66663 18.025C10.8833 16.0083 12.5208 14.1792 13.5791 12.5375C14.6375 10.8958 15.1666 9.45 15.1666 8.2C15.1666 6.23333 14.5375 4.625 13.2791 3.375C12.0208 2.125 10.4833 1.5 8.66663 1.5C6.84996 1.5 5.31246 2.125 4.05413 3.375C2.79579 4.625 2.16663 6.23333 2.16663 8.2C2.16663 9.45 2.70829 10.8958 3.79163 12.5375C4.87496 14.1792 6.49996 16.0083 8.66663 18.025ZM8.66663 20C5.98329 17.7167 3.97913 15.5958 2.65413 13.6375C1.32913 11.6792 0.666626 9.86667 0.666626 8.2C0.666626 5.7 1.47079 3.70833 3.07913 2.225C4.68746 0.741667 6.54996 0 8.66663 0C10.7833 0 12.6458 0.741667 14.2541 2.225C15.8625 3.70833 16.6666 5.7 16.6666 8.2C16.6666 9.86667 16.0041 11.6792 14.6791 13.6375C13.3541 15.5958 11.35 17.7167 8.66663 20Z" fill="#95AAFF"/>
</svg>
